<svg xmlns="http://www.w3.org/2000/svg" width="64" height="64" viewBox="0 0 64 64" fill="none" role="img" aria-label="Custom">
  <path
    d="M26 10c-7.2 0-12 4.8-12 12v5.5c0 2.2-1.3 3.5-3.5 3.5h-1.5v2h1.5c2.2 0 3.5 1.3 3.5 3.5V44c0 7.2 4.8 12 12 12h4v-5h-3.5c-4.2 0-7.5-3.3-7.5-7.5v-6c0-3.3-2-5.5-5-6.5 3-1 5-3.2 5-6.5v-6c0-4.2 3.3-7.5 7.5-7.5H30v-5h-4z"
    fill="#EDEDED"
  />
  <path
    d="M38 10h4c7.2 0 12 4.8 12 12v5.5c0 2.2 1.3 3.5 3.5 3.5H59v2h-1.5c-2.2 0-3.5 1.3-3.5 3.5V44c0 7.2-4.8 12-12 12h-4v-5h3.5c4.2 0 7.5-3.3 7.5-7.5v-6c0-3.3 2-5.5 5-6.5-3-1-5-3.2-5-6.5v-6c0-4.2-3.3-7.5-7.5-7.5H38v-5z"
    fill="#EDEDED"
  />
</svg>
