<svg xmlns="http://www.w3.org/2000/svg" width="1024" height="1024" viewBox="0 0 1024 1024" fill="none">
  <title>Libretto logo for light mode</title>
  <g>
  <polygon points="287.37,455.50 657.28,327.11 583.50,711.26" fill="rgb(91 67 0)" stroke="rgb(255 219 95)" stroke-opacity="0.08" stroke-width="1"/>
  <polygon points="287.37,455.50 583.50,711.26 272.09,785.12" fill="rgb(90 66 0)" stroke="rgb(255 219 95)" stroke-opacity="0.08" stroke-width="1"/>
  <polygon points="657.28,327.11 870.61,577.38 583.50,711.26" fill="rgb(130 95 0)" stroke="rgb(255 219 95)" stroke-opacity="0.08" stroke-width="1"/>
  <polygon points="391.46,163.55 287.37,455.50 657.28,327.11" fill="rgb(128 94 0)" stroke="rgb(255 219 95)" stroke-opacity="0.08" stroke-width="1"/>
  <polygon points="632.54,860.45 583.50,711.26 272.09,785.12" fill="rgb(90 66 0)" stroke="rgb(255 219 95)" stroke-opacity="0.08" stroke-width="1"/>
  <polygon points="632.54,860.45 870.61,577.38 583.50,711.26" fill="rgb(90 66 0)" stroke="rgb(255 219 95)" stroke-opacity="0.08" stroke-width="1"/>
  <polygon points="153.39,446.62 287.37,455.50 272.09,785.12" fill="rgb(124 91 0)" stroke="rgb(255 219 95)" stroke-opacity="0.08" stroke-width="1"/>
  <polygon points="657.28,327.11 751.91,238.88 870.61,577.38" fill="rgb(249 183 0)" stroke="rgb(255 219 95)" stroke-opacity="0.08" stroke-width="1"/>
  <polygon points="391.46,163.55 153.39,446.62 287.37,455.50" fill="rgb(138 102 0)" stroke="rgb(255 219 95)" stroke-opacity="0.08" stroke-width="1"/>
  <polygon points="391.46,163.55 657.28,327.11 751.91,238.88" fill="rgb(249 183 0)" stroke="rgb(255 219 95)" stroke-opacity="0.08" stroke-width="1"/>
  <polygon points="632.54,860.45 272.09,785.12 366.72,696.89" fill="rgb(108 79 0)" stroke="rgb(255 219 95)" stroke-opacity="0.08" stroke-width="1"/>
  <polygon points="632.54,860.45 736.63,568.50 870.61,577.38" fill="rgb(178 131 0)" stroke="rgb(255 219 95)" stroke-opacity="0.08" stroke-width="1"/>
  <polygon points="153.39,446.62 272.09,785.12 366.72,696.89" fill="rgb(144 106 0)" stroke="rgb(255 219 95)" stroke-opacity="0.08" stroke-width="1"/>
  <polygon points="751.91,238.88 736.63,568.50 870.61,577.38" fill="rgb(249 183 0)" stroke="rgb(255 219 95)" stroke-opacity="0.08" stroke-width="1"/>
  <polygon points="391.46,163.55 440.50,312.74 153.39,446.62" fill="rgb(213 156 0)" stroke="rgb(255 219 95)" stroke-opacity="0.08" stroke-width="1"/>
  <polygon points="391.46,163.55 751.91,238.88 440.50,312.74" fill="rgb(249 183 0)" stroke="rgb(255 219 95)" stroke-opacity="0.08" stroke-width="1"/>
  <polygon points="632.54,860.45 366.72,696.89 736.63,568.50" fill="rgb(117 86 0)" stroke="rgb(255 219 95)" stroke-opacity="0.08" stroke-width="1"/>
  <polygon points="440.50,312.74 153.39,446.62 366.72,696.89" fill="rgb(171 125 0)" stroke="rgb(255 219 95)" stroke-opacity="0.08" stroke-width="1"/>
  <polygon points="751.91,238.88 440.50,312.74 736.63,568.50" fill="rgb(255 255 78)" stroke="rgb(255 219 95)" stroke-opacity="0.08" stroke-width="1"/>
  <polygon points="440.50,312.74 366.72,696.89 736.63,568.50" fill="rgb(234 172 1)" stroke="rgb(255 219 95)" stroke-opacity="0.08" stroke-width="1"/>
  </g>
</svg>
