<svg xmlns="http://www.w3.org/2000/svg" width="1024" height="1024" viewBox="0 0 1024 1024" fill="none">
  <title>Libretto solid gold icosahedron mark</title>
  <g>
  <polygon points="274.34,414.11 646.74,293.11 563.46,670.39" fill="rgb(95 75 13)" stroke="rgb(255 219 95)" stroke-opacity="0.08" stroke-width="1"/>
  <polygon points="646.74,293.11 864.74,572.50 563.46,670.39" fill="rgb(138 109 19)" stroke="rgb(255 219 95)" stroke-opacity="0.08" stroke-width="1"/>
  <polygon points="274.34,414.11 563.46,670.39 262.19,768.28" fill="rgb(92 73 13)" stroke="rgb(255 219 95)" stroke-opacity="0.08" stroke-width="1"/>
  <polygon points="396.92,157.83 274.34,414.11 646.74,293.11" fill="rgb(160 127 22)" stroke="rgb(255 219 95)" stroke-opacity="0.08" stroke-width="1"/>
  <polygon points="627.08,866.17 864.74,572.50 563.46,670.39" fill="rgb(92 73 13)" stroke="rgb(255 219 95)" stroke-opacity="0.08" stroke-width="1"/>
  <polygon points="627.08,866.17 563.46,670.39 262.19,768.28" fill="rgb(92 73 13)" stroke="rgb(255 219 95)" stroke-opacity="0.08" stroke-width="1"/>
  <polygon points="646.74,293.11 761.81,255.72 864.74,572.50" fill="rgb(255 201 36)" stroke="rgb(255 219 95)" stroke-opacity="0.08" stroke-width="1"/>
  <polygon points="159.26,451.50 274.34,414.11 262.19,768.28" fill="rgb(132 104 18)" stroke="rgb(255 219 95)" stroke-opacity="0.08" stroke-width="1"/>
  <polygon points="396.92,157.83 646.74,293.11 761.81,255.72" fill="rgb(255 201 36)" stroke="rgb(255 219 95)" stroke-opacity="0.08" stroke-width="1"/>
  <polygon points="396.92,157.83 159.26,451.50 274.34,414.11" fill="rgb(149 118 21)" stroke="rgb(255 219 95)" stroke-opacity="0.08" stroke-width="1"/>
  <polygon points="627.08,866.17 749.66,609.89 864.74,572.50" fill="rgb(162 128 23)" stroke="rgb(255 219 95)" stroke-opacity="0.08" stroke-width="1"/>
  <polygon points="627.08,866.17 262.19,768.28 377.26,730.89" fill="rgb(106 84 15)" stroke="rgb(255 219 95)" stroke-opacity="0.08" stroke-width="1"/>
  <polygon points="761.81,255.72 749.66,609.89 864.74,572.50" fill="rgb(255 201 36)" stroke="rgb(255 219 95)" stroke-opacity="0.08" stroke-width="1"/>
  <polygon points="159.26,451.50 262.19,768.28 377.26,730.89" fill="rgb(146 115 20)" stroke="rgb(255 219 95)" stroke-opacity="0.08" stroke-width="1"/>
  <polygon points="396.92,157.83 761.81,255.72 460.54,353.61" fill="rgb(255 202 36)" stroke="rgb(255 219 95)" stroke-opacity="0.08" stroke-width="1"/>
  <polygon points="396.92,157.83 460.54,353.61 159.26,451.50" fill="rgb(231 183 32)" stroke="rgb(255 219 95)" stroke-opacity="0.08" stroke-width="1"/>
  <polygon points="627.08,866.17 377.26,730.89 749.66,609.89" fill="rgb(114 90 16)" stroke="rgb(255 219 95)" stroke-opacity="0.08" stroke-width="1"/>
  <polygon points="761.81,255.72 460.54,353.61 749.66,609.89" fill="rgb(255 255 126)" stroke="rgb(255 219 95)" stroke-opacity="0.08" stroke-width="1"/>
  <polygon points="460.54,353.61 159.26,451.50 377.26,730.89" fill="rgb(171 135 24)" stroke="rgb(255 219 95)" stroke-opacity="0.08" stroke-width="1"/>
  <polygon points="460.54,353.61 377.26,730.89 749.66,609.89" fill="rgb(215 170 30)" stroke="rgb(255 219 95)" stroke-opacity="0.08" stroke-width="1"/>
  </g>
</svg>
